<svg width="219" height="26" viewBox="0 0 219 26" fill="none" xmlns="http://www.w3.org/2000/svg">
<path d="M2.114 24.49L1.774 25C1.61533 25.1587 1.434 25.238 1.23 25.238C1.00333 25.238 0.867333 25.0793 0.822 24.762L0.652 21.532C0.629334 21.056 0.595334 20.5573 0.55 20.036C0.504667 19.5147 0.470667 19.1067 0.448 18.812C0.425333 18.4947 0.414 18.3133 0.414 18.268C0.414 18.0187 0.572667 17.894 0.89 17.894C1.20733 17.894 1.37733 18.0413 1.4 18.336C1.71733 19.628 2.148 20.7047 2.692 21.566C4.12 23.606 5.99 24.626 8.302 24.626C9.23133 24.626 10.036 24.5127 10.716 24.286C11.4187 24.0367 11.9513 23.742 12.314 23.402C12.6993 23.062 12.994 22.6653 13.198 22.212C13.4247 21.736 13.5607 21.328 13.606 20.988C13.674 20.648 13.708 20.308 13.708 19.968C13.708 19.1973 13.5607 18.54 13.266 17.996C12.994 17.4293 12.4613 16.908 11.668 16.432C10.8973 15.956 10.24 15.6047 9.696 15.378C9.17467 15.1513 8.24533 14.7887 6.908 14.29C6.84 14.2673 6.78333 14.2447 6.738 14.222C6.71533 14.1993 6.67 14.188 6.602 14.188C6.55667 14.1653 6.51133 14.1427 6.466 14.12C5.76333 13.848 5.19667 13.6327 4.766 13.474C4.358 13.2927 3.85933 13.0207 3.27 12.658C2.68067 12.2953 2.22733 11.9213 1.91 11.536C1.59267 11.1507 1.30933 10.652 1.06 10.04C0.810667 9.428 0.686 8.748 0.686 8C0.686 6.776 0.946667 5.67667 1.468 4.702C2.012 3.72733 2.70333 2.968 3.542 2.424C4.40333 1.88 5.276 1.472 6.16 1.2C7.06667 0.905331 7.93933 0.757998 8.778 0.757998C9.70733 0.757998 10.5687 0.882665 11.362 1.132C12.178 1.35867 12.824 1.59667 13.3 1.846C13.776 2.09533 14.1047 2.22 14.286 2.22C14.4673 2.22 14.66 2.09533 14.864 1.846C15.0907 1.59667 15.2947 1.472 15.476 1.472C15.7253 1.472 15.85 1.608 15.85 1.88C15.85 2.80933 15.8953 3.92 15.986 5.212C16.122 6.98 16.19 7.966 16.19 8.17C16.19 8.39667 16.054 8.51 15.782 8.51C15.6233 8.51 15.51 8.48733 15.442 8.442C15.3967 8.374 15.3513 8.22667 15.306 8C14.7167 5.66533 13.878 4.03333 12.79 3.104C11.7247 2.152 10.3873 1.676 8.778 1.676C7.418 1.676 6.228 2.16333 5.208 3.138C4.188 4.09 3.678 5.22333 3.678 6.538C3.678 7.85267 4.07467 8.82733 4.868 9.462C5.684 10.074 6.91933 10.6293 8.574 11.128C9.322 11.3547 9.88867 11.536 10.274 11.672C10.6593 11.808 11.192 12.012 11.872 12.284C12.5747 12.556 13.1187 12.8167 13.504 13.066C13.8893 13.2927 14.32 13.5987 14.796 13.984C15.2947 14.3693 15.6687 14.7773 15.918 15.208C16.19 15.616 16.4167 16.1147 16.598 16.704C16.802 17.2933 16.904 17.928 16.904 18.608C16.904 20.6253 16.122 22.3027 14.558 23.64C13.0167 24.9547 10.9993 25.612 8.506 25.612C8.05267 25.612 7.61067 25.578 7.18 25.51C6.74933 25.4647 6.364 25.3967 6.024 25.306C5.684 25.238 5.38933 25.1587 5.14 25.068C4.91333 25 4.68667 24.9207 4.46 24.83C4.23333 24.7393 4.09733 24.6827 4.052 24.66C3.848 24.5693 3.644 24.4673 3.44 24.354C3.236 24.218 3.07733 24.1273 2.964 24.082C2.85067 24.014 2.74867 23.98 2.658 23.98C2.56733 23.98 2.488 24.0027 2.42 24.048C2.37467 24.0933 2.30667 24.1727 2.216 24.286C2.148 24.3993 2.114 24.4673 2.114 24.49ZM39.8731 16.432L38.4451 20.002C38.0825 20.9313 37.9011 21.7587 37.9011 22.484C37.9011 22.9827 38.1051 23.402 38.5131 23.742C38.9211 24.082 39.4538 24.252 40.1111 24.252C40.4058 24.252 40.5531 24.388 40.5531 24.66C40.5531 24.932 40.3605 25.068 39.9751 25.068C39.9298 25.068 39.7711 25.0567 39.4991 25.034C39.2498 25.034 38.8531 25.0227 38.3091 25C37.7878 25 37.1645 25 36.4391 25C36.0991 25 35.5438 25.0113 34.7731 25.034C34.0025 25.0567 33.4471 25.068 33.1071 25.068C32.7445 25.068 32.5631 24.932 32.5631 24.66C32.5631 24.388 32.7445 24.252 33.1071 24.252C33.8325 24.252 34.4785 24.0027 35.0451 23.504C35.6345 23.0053 36.2125 22.11 36.7791 20.818L43.8171 4.396C43.3185 3.96533 43.0691 3.62533 43.0691 3.376C43.0691 3.24 43.2051 3.11533 43.4771 3.002C43.8398 2.866 44.2365 2.594 44.6671 2.186C45.0071 1.89133 45.3358 1.54 45.6531 1.132C45.8571 0.837332 46.0271 0.689999 46.1631 0.689999C46.2765 0.689999 46.3671 0.780666 46.4351 0.961999C46.5031 1.12067 46.6051 1.438 46.7411 1.914C46.8998 2.39 47.0811 2.866 47.2851 3.342L55.1731 21.974C55.5585 22.8807 56.0345 23.4927 56.6011 23.81C57.0318 24.0593 57.5758 24.2067 58.2331 24.252C58.5505 24.2973 58.7091 24.422 58.7091 24.626C58.7091 24.9207 58.5505 25.068 58.2331 25.068C57.8025 25.068 57.4511 25.0567 57.1791 25.034C57.0205 25.034 56.5558 25.0227 55.7851 25C55.0145 25 54.3231 25 53.7111 25C52.7591 25 51.9545 25 51.2971 25C50.6625 25.0227 50.1978 25.034 49.9031 25.034C49.6085 25.0567 49.4045 25.068 49.2911 25.068C48.9511 25.068 48.7811 24.932 48.7811 24.66C48.7811 24.388 48.9738 24.252 49.3591 24.252C49.8125 24.252 50.1751 24.2407 50.4471 24.218C50.7418 24.1727 51.0365 24.048 51.3311 23.844C51.6258 23.64 51.7731 23.3453 51.7731 22.96C51.7731 22.552 51.5238 21.736 51.0251 20.512L49.3251 16.432H39.8731ZM44.4631 5.416L40.2471 15.412H48.9171L44.4631 5.416ZM87.348 2.254V22.042C87.348 22.8807 87.5633 23.4587 87.994 23.776C88.4473 24.0707 89.2067 24.218 90.272 24.218C90.816 24.218 91.088 24.3767 91.088 24.694C91.088 24.966 90.884 25.102 90.476 25.102C90.4533 25.102 89.8867 25.0907 88.776 25.068C87.688 25.0453 86.634 25.034 85.614 25.034C84.594 25.034 83.54 25.0453 82.452 25.068C81.364 25.0907 80.7973 25.102 80.752 25.102C80.344 25.102 80.14 24.966 80.14 24.694C80.14 24.3767 80.412 24.218 80.956 24.218C81.5227 24.218 81.9873 24.184 82.35 24.116C82.7127 24.048 83.0527 23.8667 83.37 23.572C83.71 23.2547 83.88 22.8127 83.88 22.246V2.254H80.956C79.936 2.254 79.018 2.40133 78.202 2.696C77.4087 2.99067 76.7513 3.39867 76.23 3.92C75.7313 4.41867 75.3233 4.89467 75.006 5.348C74.7113 5.77867 74.4167 6.25467 74.122 6.776C74.054 6.93467 73.9973 7.048 73.952 7.116C73.7707 7.388 73.612 7.524 73.476 7.524C73.2493 7.524 73.136 7.41067 73.136 7.184C73.136 7.116 73.17 6.912 73.238 6.572C73.3287 6.232 73.442 5.81267 73.578 5.314C73.714 4.81533 73.816 4.38467 73.884 4.022C73.9293 3.79533 73.9973 3.45533 74.088 3.002C74.2013 2.54867 74.292 2.152 74.36 1.812C74.4507 1.472 74.496 1.268 74.496 1.2C74.6093 0.859999 74.7567 0.689999 74.938 0.689999C75.074 0.689999 75.244 0.746665 75.448 0.859999C75.6747 0.950666 76.162 1.05267 76.91 1.166C77.658 1.27933 78.746 1.336 80.174 1.336H91.054C92.1647 1.336 93.0827 1.302 93.808 1.234C94.5333 1.166 95.0093 1.098 95.236 1.03C95.4627 0.939332 95.6553 0.859999 95.814 0.792C95.9953 0.723999 96.154 0.689999 96.29 0.689999C96.4713 0.689999 96.6187 0.859999 96.732 1.2L97.31 4.022C97.378 4.38467 97.48 4.82667 97.616 5.348C97.752 5.84667 97.854 6.266 97.922 6.606C98.0127 6.92333 98.058 7.116 98.058 7.184C98.058 7.41067 97.922 7.524 97.65 7.524C97.4687 7.524 97.31 7.388 97.174 7.116L96.664 6.232C96.324 5.64267 96.086 5.26867 95.95 5.11C95.8367 4.92867 95.5647 4.6 95.134 4.124C94.7033 3.648 94.2953 3.31933 93.91 3.138C93.5247 2.934 93.0033 2.74133 92.346 2.56C91.7113 2.356 91.02 2.254 90.272 2.254H87.348ZM119.476 4.906V17.588C119.476 22.1213 121.675 24.388 126.072 24.388C128.906 24.388 130.866 23.64 131.954 22.144C133.065 20.648 133.62 18.3813 133.62 15.344V5.518C133.62 4.77 133.552 4.158 133.416 3.682C133.28 3.206 133.065 2.866 132.77 2.662C132.476 2.458 132.181 2.322 131.886 2.254C131.592 2.186 131.218 2.152 130.764 2.152C130.334 2.152 130.118 2.00466 130.118 1.71C130.118 1.438 130.322 1.302 130.73 1.302C131.184 1.302 131.784 1.31333 132.532 1.336C133.28 1.35867 133.734 1.37 133.892 1.37C134.119 1.37 134.72 1.35867 135.694 1.336C136.692 1.31333 137.258 1.302 137.394 1.302C137.938 1.302 138.21 1.44933 138.21 1.744C138.21 2.016 138.052 2.152 137.734 2.152C135.717 2.152 134.708 3.22867 134.708 5.382V15.582C134.708 18.914 134.04 21.4187 132.702 23.096C131.365 24.7733 128.985 25.612 125.562 25.612C123.681 25.612 122.094 25.3967 120.802 24.966C119.533 24.5127 118.558 23.8553 117.878 22.994C117.198 22.1327 116.722 21.192 116.45 20.172C116.178 19.1293 116.042 17.894 116.042 16.466V4.26C116.042 3.444 115.85 2.88867 115.464 2.594C115.102 2.27667 114.524 2.118 113.73 2.118C113.186 2.118 112.914 1.982 112.914 1.71C112.914 1.438 113.13 1.302 113.56 1.302C113.583 1.302 114.036 1.31333 114.92 1.336C115.804 1.336 116.756 1.336 117.776 1.336C118.796 1.336 119.771 1.336 120.7 1.336C121.652 1.31333 122.151 1.302 122.196 1.302C122.604 1.302 122.808 1.438 122.808 1.71C122.808 1.982 122.536 2.118 121.992 2.118C120.904 2.118 120.213 2.322 119.918 2.73C119.624 3.138 119.476 3.86333 119.476 4.906ZM158.253 25H157.573C156.893 25 156.202 25.0113 155.499 25.034C154.796 25.0567 154.388 25.068 154.275 25.068C153.754 25.068 153.493 24.9433 153.493 24.694C153.493 24.3993 153.822 24.252 154.479 24.252C155.25 24.252 155.794 24.0593 156.111 23.674C156.428 23.2887 156.587 22.7107 156.587 21.94V4.26C156.587 3.444 156.394 2.88867 156.009 2.594C155.646 2.27667 155.068 2.118 154.275 2.118C153.731 2.118 153.459 1.95933 153.459 1.642C153.459 1.39267 153.652 1.268 154.037 1.268C155.306 1.268 156.95 1.24533 158.967 1.2C161.007 1.132 162.707 1.098 164.067 1.098C166.311 1.098 168.283 1.65333 169.983 2.764C171.706 3.87467 172.567 5.52933 172.567 7.728C172.567 8.58933 172.386 9.394 172.023 10.142C171.66 10.89 171.218 11.4907 170.697 11.944C170.176 12.3973 169.62 12.794 169.031 13.134C168.442 13.4513 167.932 13.678 167.501 13.814C167.07 13.95 166.742 14.018 166.515 14.018C167.444 14.5167 168.283 15.2533 169.031 16.228C169.326 16.6133 170.187 17.8487 171.615 19.934C171.683 20.0247 171.91 20.3533 172.295 20.92C172.68 21.4867 172.93 21.8493 173.043 22.008C173.156 22.144 173.394 22.416 173.757 22.824C174.12 23.232 174.414 23.504 174.641 23.64C174.89 23.7533 175.208 23.8893 175.593 24.048C175.978 24.184 176.375 24.252 176.783 24.252C177.146 24.252 177.327 24.388 177.327 24.66C177.327 24.9547 177.18 25.102 176.885 25.102C176.772 25.102 176.375 25.0793 175.695 25.034C175.038 25.0113 174.471 25 173.995 25C173.36 25 172.748 25.0113 172.159 25.034C171.592 25.0567 171.286 25.068 171.241 25.068L166.855 18.71C166.47 18.1433 166.107 17.656 165.767 17.248C165.427 16.84 164.985 16.3867 164.441 15.888C163.897 15.3667 163.274 14.97 162.571 14.698C161.891 14.426 161.154 14.29 160.361 14.29H159.885V22.042C159.885 22.858 160.078 23.436 160.463 23.776C160.848 24.0933 161.46 24.252 162.299 24.252C162.979 24.252 163.319 24.388 163.319 24.66C163.319 24.932 163.126 25.068 162.741 25.068C162.696 25.068 162.186 25.0567 161.211 25.034C160.259 25.0113 159.273 25 158.253 25ZM159.885 4.362V13.406H162.265C163.013 13.406 163.75 13.3153 164.475 13.134C165.223 12.9527 165.948 12.6693 166.651 12.284C167.376 11.8987 167.966 11.332 168.419 10.584C168.872 9.81333 169.099 8.92933 169.099 7.932C169.099 6.05067 168.612 4.634 167.637 3.682C166.685 2.73 165.552 2.17467 164.237 2.016C163.988 1.97067 163.489 1.948 162.741 1.948H161.721C161.29 1.948 160.939 2.016 160.667 2.152C160.418 2.26533 160.236 2.458 160.123 2.73C160.032 2.97933 159.964 3.21733 159.919 3.444C159.896 3.67067 159.885 3.97667 159.885 4.362ZM195.962 4.736V21.022C195.962 23.1753 197.016 24.252 199.124 24.252C199.418 24.252 199.566 24.388 199.566 24.66C199.566 24.932 199.294 25.068 198.75 25.068C198.614 25.068 198.058 25.0567 197.084 25.034C196.109 25.0113 195.508 25 195.282 25C195.1 25 194.613 25.0113 193.82 25.034C193.026 25.0567 192.414 25.068 191.984 25.068C191.576 25.068 191.372 24.9433 191.372 24.694C191.372 24.3993 191.587 24.252 192.018 24.252C192.947 24.252 193.65 24.0367 194.126 23.606C194.602 23.1753 194.84 22.2687 194.84 20.886V3.75C194.182 2.82067 193.264 2.26533 192.086 2.084C191.632 1.99333 191.406 1.85733 191.406 1.676C191.406 1.404 191.678 1.268 192.222 1.268C192.743 1.268 193.468 1.27933 194.398 1.302C195.35 1.32467 196.007 1.336 196.37 1.336C196.528 1.336 196.687 1.336 196.846 1.336C197.027 1.31333 197.129 1.302 197.152 1.302C197.288 1.302 197.424 1.37 197.56 1.506L213.234 20.104V5.518C213.234 4.77 213.166 4.158 213.03 3.682C212.894 3.206 212.678 2.866 212.384 2.662C212.089 2.458 211.794 2.322 211.5 2.254C211.205 2.186 210.831 2.152 210.378 2.152C209.947 2.152 209.732 2.00466 209.732 1.71C209.732 1.438 209.936 1.302 210.344 1.302C210.774 1.302 211.364 1.31333 212.112 1.336C212.86 1.35867 213.313 1.37 213.472 1.37C213.676 1.37 214.31 1.35867 215.376 1.336C216.441 1.31333 217.053 1.302 217.212 1.302C217.778 1.302 218.062 1.44933 218.062 1.744C218.062 2.016 217.903 2.152 217.586 2.152C215.41 2.152 214.322 3.16067 214.322 5.178V25.068C214.322 25.3627 214.186 25.51 213.914 25.51C213.778 25.51 213.528 25.3513 213.166 25.034L195.962 4.736Z" fill="#2C4867"/>
</svg>
